<svg width="44" height="34" viewBox="0 0 44 34" fill="none" xmlns="http://www.w3.org/2000/svg">
<path d="M10.4715 0.626092C11.6214 0.549822 12.7302 0.549822 13.798 0.626092C15.7811 0.7669 17.9284 1.81122 19.5066 2.96115C19.5066 2.96115 19.5125 2.96701 19.5183 2.97288C19.5359 2.99635 19.5301 3.02568 19.5066 3.03742C18.5679 3.70038 17.5822 4.36922 16.5555 5.04976C15.6989 5.61299 14.8541 5.90634 13.9564 5.39592C13.8156 5.31378 13.7922 5.34311 13.8802 5.47805L14.6018 6.51064C14.637 6.55758 14.7074 6.56931 14.7602 6.53411C15.0888 6.28769 15.429 6.05302 15.7811 5.8242C18.3449 4.15214 20.9792 2.43312 23.6839 0.678895C23.8716 0.555689 24.0594 0.485285 24.2588 0.467684C24.2647 0.467684 24.2706 0.467684 24.2764 0.467684C24.3234 0.467684 24.3586 0.51462 24.3527 0.567423C24.3116 0.966377 23.7601 1.50614 23.4903 1.82882L21.0672 4.6919C21.0144 4.75644 20.9323 4.79164 20.8501 4.78577C20.5626 4.76817 20.3104 4.72124 20.0816 4.64497C19.9759 4.60976 19.9525 4.6391 20.0111 4.73297L20.2869 5.20817C20.3338 5.29031 20.3338 5.38418 20.2869 5.46632L19.8058 6.31116C19.7882 6.3405 19.7589 6.36397 19.7295 6.3757C18.9844 6.61038 18.4329 6.09408 17.9577 5.61299C17.946 5.60126 17.9284 5.58953 17.9049 5.59539C17.8697 5.59539 17.8462 5.62473 17.8462 5.65993C17.8756 6.17036 18.5092 6.73945 18.8964 7.02107C18.9551 7.068 18.9727 7.15014 18.9258 7.21468C18.6676 7.57843 18.1513 8.30593 17.6937 8.38807C17.0249 8.50541 16.3208 7.7427 15.9395 7.22641C15.7869 7.02107 15.7283 7.04453 15.7576 7.29681C15.7811 7.47282 15.8573 7.6547 15.9805 7.83071C16.2152 8.17099 16.4675 8.49954 16.7198 8.82809C16.9545 9.12731 16.9545 9.44412 16.7256 9.77854C16.5262 9.94868 16.2974 10.025 16.0216 10.0132C15.3645 9.98388 14.6018 9.63773 14.2674 8.99237C14.2557 8.96303 14.2322 8.95717 14.2028 8.97477L14.1735 8.99237C14.1735 8.99237 14.1442 9.02757 14.15 9.05104C14.3202 9.50866 14.6429 9.87828 14.7133 10.3652C14.7778 10.8053 14.8189 11.2453 14.8306 11.6853C14.8658 12.8 14.2028 13.9148 13.3697 14.5836C13.1527 14.7537 13.0823 14.7068 13.1527 14.4428C13.2641 14.0145 13.3756 13.6977 13.2935 13.2107C12.9767 11.9963 11.7915 11.1279 10.6357 10.6234C9.97863 10.3359 9.28046 9.99562 8.54122 9.60253C8.12467 9.38546 7.80198 9.11557 7.57904 8.79289C7.5497 8.74595 7.50277 8.73422 7.44997 8.75182C7.42063 8.75769 7.4089 8.78702 7.4089 8.81636C7.49103 9.82548 7.85479 10.6293 8.50602 11.2336C8.55882 11.2805 8.59402 11.345 8.60576 11.4154C8.62336 11.5034 8.58816 11.568 8.50602 11.6032C8.45322 11.6266 8.40041 11.6325 8.34761 11.6149C7.97213 11.5034 7.59664 11.3333 7.22702 11.0869C5.53732 9.97215 4.75701 8.10059 4.66901 6.09995C4.65141 5.74207 4.72181 5.36071 4.86849 4.96176C5.09143 4.35749 5.37305 3.80012 5.7192 3.2897C6.875 1.65868 8.45322 0.772767 10.4539 0.643693M5.15597 12.4069C5.15597 12.4069 5.15597 12.3893 5.15597 12.3835C5.15597 12.3307 5.2029 12.2837 5.25571 12.2837C5.26744 12.2837 5.27917 12.2837 5.29091 12.2837C5.31438 12.2837 5.33784 12.2955 5.36131 12.3131C6.35871 13.0347 7.36196 13.3398 8.58229 13.6683C9.07512 13.8209 9.56207 13.9676 10.0725 14.0673C11.0347 14.2609 11.8678 14.7361 12.3548 15.6162C13.0119 16.8013 13.1292 18.2035 12.9532 19.5353C12.9356 19.6703 12.871 19.7172 12.7537 19.682C12.5836 19.3476 12.4838 18.9721 12.4604 18.5673C12.4604 18.5555 12.4545 18.5438 12.4428 18.5379C12.431 18.5321 12.4134 18.5262 12.4017 18.5379C12.3724 18.5555 12.3489 18.579 12.3372 18.6083C12.0614 19.3534 11.639 19.8991 11.0758 20.2569C10.3776 20.6911 9.59141 20.7204 8.71723 20.345C7.01581 18.9369 6.71659 17.2296 7.81958 15.2231C7.93692 15.0119 8.0836 14.8593 8.27134 14.7127C8.34174 14.6599 8.33001 14.6188 8.24201 14.6012C7.72571 14.5015 7.12728 14.4076 6.66966 14.1788C6.53472 14.1142 6.41151 14.0497 6.29417 13.991C5.71333 13.6038 5.33198 13.0758 5.15597 12.4069ZM15.2589 24.7628C15.6579 24.7628 15.9864 25.0913 15.9864 25.4903C15.9864 25.8892 15.6579 26.2178 15.2589 26.2178C14.8599 26.2178 14.5314 25.8951 14.5314 25.4903C14.5314 25.0855 14.8599 24.7628 15.2589 24.7628ZM0.262914 19.5998C0.262914 19.5998 0.245313 19.5998 0.239446 19.5998C0.245313 19.5998 0.257047 19.5998 0.262914 19.5998ZM0.215978 19.6116C0.215978 19.6116 0.198377 19.6116 0.19251 19.6233C0.198377 19.6233 0.204244 19.6175 0.215978 19.6116ZM0.174909 19.6292C0.174909 19.6292 0.163175 19.635 0.157308 19.6409C0.157308 19.6409 0.169042 19.635 0.174909 19.6292ZM0.139707 19.6585C0.139707 19.6585 0.127973 19.6703 0.122106 19.6761C0.122106 19.6761 0.13384 19.6644 0.139707 19.6585ZM0.110372 19.6879C0.110372 19.6879 0.104505 19.6996 0.0986384 19.7055C0.0986384 19.6996 0.104505 19.6937 0.110372 19.6879ZM0.0869044 19.7289C0.0869044 19.7289 0.0810375 19.7407 0.0751705 19.7524C0.0751705 19.7465 0.0810375 19.7407 0.0869044 19.7289ZM0.0575696 19.8228C0.0575696 19.8228 0.0575696 19.8228 0.0575696 19.8169C0.0575696 19.8287 0.0575696 19.8404 0.0575696 19.858C0.0575696 19.8463 0.0575696 19.8345 0.0575696 19.8287M0.0693035 19.77C0.0693035 19.77 0.0693035 19.7817 0.0693035 19.7935C0.0693035 19.7876 0.0693035 19.7817 0.0693035 19.77ZM43.6668 24.0001C43.5729 24.1468 43.5142 24.135 43.4908 23.9649C43.35 23.0262 42.9158 22.3456 42.1766 21.9349C41.6133 21.6181 40.8917 21.2895 40.2639 21.1663C39.6186 21.0373 38.8735 20.9845 38.011 21.0197C36.2979 21.0842 34.6375 21.4538 33.03 22.1226C32.7718 22.2283 32.5019 22.3339 32.2262 22.4395C32.1147 22.4805 32.1147 22.5216 32.2262 22.5627L33.159 22.9088C34.1271 23.4544 34.8957 24.3052 35.588 25.1559C35.7053 25.2967 35.7581 25.461 35.7522 25.6428C35.7522 25.6956 35.7288 25.7367 35.6877 25.766C35.5293 25.8775 35.365 25.9244 35.189 25.901C34.7548 25.8423 34.309 25.7895 33.8513 25.7543C32.5489 25.6487 31.3051 25.8892 30.1258 26.4701C28.6767 27.1917 27.3566 28.1598 26.1656 29.3918C25.9544 29.6089 25.5906 29.8788 25.0685 30.1956C23.5431 31.1284 21.8944 31.6506 20.1168 31.7562C20.0346 31.7562 19.9759 31.7914 19.9407 31.8501C19.9173 31.8912 19.929 31.9205 19.9759 31.9381C20.1402 31.9968 20.3045 32.0378 20.4629 32.0672C21.0496 32.1728 21.6598 32.2608 22.2758 32.337C22.3051 32.337 22.3286 32.3546 22.3403 32.3781C22.3403 32.3781 22.3462 32.3898 22.3521 32.3957C22.3638 32.4368 22.3403 32.4778 22.2993 32.4954C19.9173 33.264 17.5001 33.6688 15.0477 33.7158C12.9473 33.7568 10.9995 33.264 9.19832 32.2373C8.65856 31.9263 8.14227 31.633 7.65531 31.3514C7.10381 31.0815 6.58752 30.7178 6.1123 30.2601C4.35806 28.5646 3.07319 26.6109 2.25182 24.3932C1.69446 22.903 1.2955 21.3717 1.05496 19.8169C1.07842 19.4942 1.11363 19.242 1.15469 19.0542C1.2075 18.8254 1.2779 18.8195 1.37177 19.0308L2.01714 20.4564C2.24595 20.8847 2.5921 21.2543 3.04973 21.5594C3.99431 22.2165 5.06796 22.6213 6.27657 22.768C7.03928 22.8619 7.80785 22.9558 8.57642 23.0496C9.29219 23.1376 9.89062 23.472 10.3717 24.0529C10.9467 24.8097 11.1227 25.3905 11.3867 26.1826C11.504 26.5463 11.639 26.8162 11.7915 26.9922C12.3665 27.6787 13.0823 28.0072 13.9271 27.9896C15.0418 27.9661 16.2856 27.6317 17.3182 27.2914C18.6617 26.8514 19.7354 25.7954 19.8293 24.2934C19.8997 23.3899 19.7882 22.5275 19.5066 21.7061C19.1722 20.9962 18.9082 20.2393 18.7145 19.4414C18.6265 18.6905 18.6148 18.051 18.6735 17.5112C18.7908 16.4845 19.2015 15.2818 19.1722 14.126C19.1487 13.0816 19.0724 12.1488 18.9375 11.3392C18.8554 10.8346 18.6735 10.3359 18.3977 9.84308L18.0398 9.12144C18.0046 9.05104 18.0164 8.96303 18.0692 8.8985L21.6891 4.70364C21.736 4.65083 21.8123 4.64497 21.8651 4.68604C23.9655 6.28183 26.2595 7.88938 28.7529 9.50866C30.2079 10.4532 31.927 10.7583 33.6284 10.5412C35.0658 10.3594 36.4797 9.6436 37.6531 8.71075C37.6707 8.69902 37.6942 8.68729 37.7177 8.69315C37.7705 8.69315 37.8057 8.74595 37.7998 8.79289C37.6121 10.5412 36.7907 11.8907 35.3298 12.847C35.1303 12.976 34.925 13.0699 34.7138 13.1344C34.2855 13.2635 33.7868 13.3515 33.47 13.6801C33.423 13.727 33.423 13.8033 33.47 13.8502C33.6577 14.0321 33.8689 14.1201 34.1036 14.1318C34.7724 14.1494 35.4295 14.2081 36.069 14.302C38.4628 14.654 40.4106 16.0797 42.2059 17.8163C43.0097 18.5966 43.438 19.8228 43.6257 20.8906C43.6902 21.2602 43.7372 21.6005 43.7724 21.9056C43.8252 22.4453 43.9132 23.5777 43.6374 24.0059" fill="#FF9500"/>
</svg>
